<svg xmlns="http://www.w3.org/2000/svg" width="60" height="58.112" viewBox="0 0 60 58.112"><g id="Group_7206" data-name="Group 7206" transform="translate(-32.505 -39.539)"><path id="Path_4189" data-name="Path 4189" d="M301.219,85.187l-2.35,3.491L291.185,83.5l2.35-3.49a1.5,1.5,0,0,1,2.074-.405l5.2,3.5a1.5,1.5,0,0,1,.405,2.073Z" transform="translate(-223.907 -34.509)" fill="#227aff"></path><rect id="Rectangle_1614" data-name="Rectangle 1614" width="2.984" height="9.262" transform="matrix(0.558, -0.83, 0.83, 0.558, 64.617, 52.996)" fill="#227aff"></rect><path id="Path_4190" data-name="Path 4190" d="M245.332,150.622l-2.9,4.3,2.946,2.365,3.074-4.566Z" transform="translate(-181.729 -96.159)" fill="#227aff"></path><path id="Path_4191" data-name="Path 4191" d="M277.86,173.652l-3.155,4.687,2.947,2.365,3.331-4.949Z" transform="translate(-209.663 -116.094)" fill="#227aff"></path><path id="Path_4192" data-name="Path 4192" d="M94.368,415.173,89.956,412.2l-.581,8.033,7.222-3.562Z" transform="translate(-49.289 -322.584)" fill="#227aff"></path><path id="Path_4193" data-name="Path 4193" d="M114.617,254.845l-2.407,3.576a.867.867,0,0,1-1.438-.968l2.489-3.7-2.946-2.363-7.534,11.191h0l-5.693,8.457,3.123,2.1,8.67-12.878a.866.866,0,0,1,1.437.968l-8.67,12.878,3.123,2.1,3.61-5.361,0-.007,9.18-13.635Z" transform="translate(-55.971 -183.21)" fill="#227aff"></path><path id="Path_4194" data-name="Path 4194" d="M91.592,85.9,34.712,40.178c-.658-.528-1.286-.753-1.636-.583s-.57.8-.57,1.644v8.593h3.852a.874.874,0,0,1,0,1.748H32.505v4.875h3.852a.874.874,0,0,1,0,1.748H32.505v4.875h3.852a.874.874,0,0,1,0,1.748H32.505V69.7h3.852a.874.874,0,0,1,0,1.748H32.505v4.875h3.852a.874.874,0,0,1,0,1.748H32.505v5.406a3.784,3.784,0,0,0,3.776,3.783H39.46l5.085-7.565H40.931a.873.873,0,0,1-.873-.874V56a.873.873,0,0,1,1.419-.682L69.87,78.136a.874.874,0,0,1-.546,1.555H60l-5.085,7.565h36.2a2.342,2.342,0,0,0,1.389-.274C92.489,86.859,92.3,86.468,91.592,85.9Z" fill="#fa9952"></path></g></svg>