<svg xmlns="http://www.w3.org/2000/svg" width="60" height="57.188" viewBox="0 0 60 57.188"><g id="Group_7207" data-name="Group 7207" transform="translate(-32.509 -42.984)"><path id="Path_4195" data-name="Path 4195" d="M197.312,52.168h-3.7l-1.448-4.708a.9.9,0,0,0-1.713,0l-1.448,4.708h-3.7l2.825-9.184h6.352Z" transform="translate(-132.422)" fill="#fa9952"></path><path id="Path_4196" data-name="Path 4196" d="M161.189,392.137h-25.76l.543-1.792h24.666Z" transform="translate(-89.37 -301.016)" fill="#fa9952"></path><path id="Path_4197" data-name="Path 4197" d="M85.145,357.945l-1.566,5.09,0,.011-3.14,10.207-3.377-1.038,4.39-14.27h3.7Z" transform="translate(-38.41 -273.081)" fill="#fa9952"></path><path id="Path_4198" data-name="Path 4198" d="M82,122.625H35.514a3.056,3.056,0,0,0-3,3.1v12.544l.488-.36c3.053-2.256,6.212-4.589,10.12-4.226a13.578,13.578,0,0,1,4.756,1.672c.539.269,1.047.522,1.56.746a36.149,36.149,0,0,0,4.76,1.643,14.109,14.109,0,0,1,4.51-2.468c3.75-1.072,7.309,1.883,9.929,4.093.087.007.2.012.318.012a2.1,2.1,0,0,0,1.548-.485,1.432,1.432,0,0,0,.257-1.112,3.2,3.2,0,0,1,.757-2.481,3.1,3.1,0,0,1,2.279-1.017,2.794,2.794,0,0,1,.908-1.979l9.477-8.7A2.978,2.978,0,0,0,82,122.625ZM47.042,129.91a.855.855,0,0,1-1.187-.328,1.368,1.368,0,0,0-1.187-.706,1.392,1.392,0,0,0-1.369,1.411.869.869,0,1,1-1.738,0,1.391,1.391,0,0,0-1.369-1.411,1.368,1.368,0,0,0-1.187.706.854.854,0,0,1-1.187.327.91.91,0,0,1-.317-1.224,3.1,3.1,0,0,1,2.691-1.6,3.057,3.057,0,0,1,2.238.984,3.057,3.057,0,0,1,2.238-.984,3.1,3.1,0,0,1,2.691,1.6A.911.911,0,0,1,47.042,129.91Zm16.324-1.946a.855.855,0,0,1-1.187-.327,1.366,1.366,0,0,0-1.186-.707,1.394,1.394,0,0,0-1.37,1.411.869.869,0,1,1-1.738,0,1.392,1.392,0,0,0-1.369-1.411,1.365,1.365,0,0,0-1.186.707.858.858,0,0,1-1.188.327.914.914,0,0,1-.317-1.225,3.1,3.1,0,0,1,2.691-1.6,3.053,3.053,0,0,1,2.238.985,3.056,3.056,0,0,1,2.239-.985,3.1,3.1,0,0,1,2.689,1.6A.911.911,0,0,1,63.366,127.964Zm6,5.794a4.626,4.626,0,1,1,4.483-4.624A4.561,4.561,0,0,1,69.368,133.758Z" transform="translate(0 -69.065)" fill="#227aff"></path><path id="Path_4199" data-name="Path 4199" d="M72.133,152.137a2.749,2.749,0,1,1-2.747-2.832A2.794,2.794,0,0,1,72.133,152.137Zm12.894,3.18v17.855a3.057,3.057,0,0,1-3.006,3.1h-46.5a3.056,3.056,0,0,1-3.006-3.1v-9.712c.5-.357,1.008-.729,1.5-1.093,2.8-2.064,5.688-4.2,8.956-3.9a12.107,12.107,0,0,1,4.157,1.5c.535.266,1.087.542,1.642.784a32.454,32.454,0,0,0,3.664,1.333,16.762,16.762,0,0,1-2.256,1.453,33.463,33.463,0,0,1-7.874,2.568.9.9,0,0,0-.655,1.072.875.875,0,0,0,.847.7.834.834,0,0,0,.193-.022,34.852,34.852,0,0,0,8.269-2.712,23.7,23.7,0,0,0,3.47-2.339A14.892,14.892,0,0,1,59.18,160c2.929-.837,6.129,1.863,8.466,3.834l.127.106.005.006c.122.1,3.018,2.31,5.526,2.31a3.873,3.873,0,0,0,.726-.066,4.361,4.361,0,0,0,3.479-3.093,5.072,5.072,0,0,0,.211-1.272,2.734,2.734,0,0,0,.439.04,2.668,2.668,0,0,0,2.014-.939Z" transform="translate(0 -92.373)" fill="#fa9952"></path><path id="Path_4200" data-name="Path 4200" d="M322.046,225.606a6.256,6.256,0,0,1-2.477-.688,2.942,2.942,0,0,0,.926-.67,3.124,3.124,0,0,0,.73-2.479,1.4,1.4,0,0,1,.314-1.115,1.466,1.466,0,0,1,1.071-.438,1.094,1.094,0,0,1,.777.273l1.071,1.072a2.418,2.418,0,0,1,.211,2.144,2.634,2.634,0,0,1-2.2,1.863A2.343,2.343,0,0,1,322.046,225.606Z" transform="translate(-248.623 -153.506)" fill="#fa9952"></path><path id="Path_4201" data-name="Path 4201" d="M371.231,104.053l-13.484,15.138a.973.973,0,0,1-1.439.041l-1.694-1.7a.971.971,0,0,1,.041-1.437l15.137-13.486a1.332,1.332,0,0,1,.874-.338.916.916,0,0,1,.659.245A1.172,1.172,0,0,1,371.231,104.053Z" transform="translate(-279.058 -51.12)" fill="#227aff"></path><path id="Path_4202" data-name="Path 4202" d="M325.675,357.945l4.39,14.27-3.377,1.038-3.141-10.207a.034.034,0,0,1,0-.01l-1.566-5.091Z" transform="translate(-250.77 -273.081)" fill="#fa9952"></path></g></svg>