<svg xmlns="http://www.w3.org/2000/svg" width="60" height="54.764" viewBox="0 0 60 54.764"><g id="Group_7209" data-name="Group 7209" transform="translate(-41 -59.764)"><path id="Path_4206" data-name="Path 4206" d="M134.376,316.326a19.361,19.361,0,0,1-13.31,5.863l10.993-11.206-1.963-2-10.7,10.9q-.033-.9-.135-1.781a20.076,20.076,0,0,1,5.589-11.485,19.358,19.358,0,0,1,13.909-5.873c.443,0,.887.016,1.33.045A20.139,20.139,0,0,1,134.376,316.326Zm-18.045,3.559q.033-.9.135-1.781a20.072,20.072,0,0,0-5.589-11.485,19.358,19.358,0,0,0-13.909-5.873c-.443,0-.887.016-1.33.045a20.139,20.139,0,0,0,5.716,15.535,19.358,19.358,0,0,0,13.309,5.863l-10.993-11.206,1.965-2Z" transform="translate(-46.864 -207.662)" fill="#227aff"></path><path id="Path_4207" data-name="Path 4207" d="M96.021,64.726a17.034,17.034,0,0,0-24.035,0L71,65.711l-.987-.985A16.97,16.97,0,1,0,45.977,88.688L47.9,90.6c.7-.064,1.4-.1,2.1-.1a22.6,22.6,0,0,1,21,14.244A22.6,22.6,0,0,1,92,90.5c.7,0,1.4.033,2.1.1l1.919-1.913a16.906,16.906,0,0,0,0-23.962ZM81.709,81.564H72.4V90.85H69.6V81.564H60.291V78.782H69.6V69.5H72.4v9.287h9.314Z" fill="#fa9952"></path></g></svg>