<svg xmlns="http://www.w3.org/2000/svg" width="60" height="73.629" viewBox="0 0 60 73.629"><g id="Group_7211" data-name="Group 7211" transform="translate(-68.575 -26.001)"><path id="Path_4212" data-name="Path 4212" d="M195.858,223.612a5.04,5.04,0,1,1-2.392-4.281l-.6.6-2.859,2.857a1.161,1.161,0,1,0,1.641,1.641l3.459-3.461A5,5,0,0,1,195.858,223.612Z" transform="translate(-98.325 -161.583)" fill="#fa9952"></path><path id="Path_4213" data-name="Path 4213" d="M102.475,115.44a14.013,14.013,0,0,1,1.926,15.294L85.3,137.07a14.1,14.1,0,0,1,4.3-26.47,1.16,1.16,0,0,0-.351-2.294,16.408,16.408,0,0,0-8,28.843h-5.22a4.168,4.168,0,0,0-2.9,1.176,23.16,23.16,0,0,1,34.148-30.962l-4.777,4.779a16.4,16.4,0,0,0-8.258-3.835,1.16,1.16,0,0,0-.351,2.294,13.966,13.966,0,0,1,6.951,3.2l-4.787,4.787a7.365,7.365,0,1,0,1.641,1.641Z" transform="translate(0 -62.869)" fill="#fa9952"></path><path id="Path_4214" data-name="Path 4214" d="M303.836,181.089v-5.5a3.527,3.527,0,0,0-1.31-2.831,3.279,3.279,0,0,0-1.173-.574,16.389,16.389,0,0,0-2.895-16.683.139.139,0,0,1-.014-.015l4.777-4.776a23.151,23.151,0,0,1,.614,30.379Zm6.7,12.285a1.16,1.16,0,1,1-1.64-1.641,6.57,6.57,0,0,0,0-9.281,1.16,1.16,0,0,1,1.64-1.64A8.892,8.892,0,0,1,310.54,193.374Z" transform="translate(-192.299 -102.95)" fill="#fa9952"></path><path id="Path_4215" data-name="Path 4215" d="M393.829,336.637A1.161,1.161,0,0,1,392.188,335a12.706,12.706,0,0,0,0-17.952,1.161,1.161,0,0,1,1.641-1.641A15.033,15.033,0,0,1,393.829,336.637Z" transform="translate(-271.252 -241.877)" fill="#fa9952"></path><path id="Path_4216" data-name="Path 4216" d="M130.391,439.129l-3.817,7.251h-2.319v-7.251Z" transform="translate(-47.066 -346.75)" fill="#fa9952"></path><path id="Path_4217" data-name="Path 4217" d="M137.757,304.96v23.008a1.221,1.221,0,0,1-.411,1,1.2,1.2,0,0,1-1.033.158L116.955,322.7v-3.919a1.16,1.16,0,0,0-2.321,0v3.6h-8.057a1.864,1.864,0,0,1-1.863-1.861v-8.11a1.865,1.865,0,0,1,1.863-1.863h8.057v3.6a1.16,1.16,0,0,0,2.321,0v-3.919l19.357-6.42a1.2,1.2,0,0,1,1.033.159A1.216,1.216,0,0,1,137.757,304.96Z" transform="translate(-30.549 -232.321)" fill="#227aff"></path><path id="Path_4218" data-name="Path 4218" d="M80.51,369.12v5.189a2.84,2.84,0,0,1,0-5.189Z" transform="translate(-8.664 -288.053)" fill="#fa9952"></path><line id="Line_1" data-name="Line 1" x1="3.376" y2="3.376" transform="translate(112.098 40.795)" fill="#f05073"></line><line id="Line_2" data-name="Line 2" x1="2.237" y2="2.235" transform="translate(94.693 59.337)" fill="#f05073"></line><path id="Path_4219" data-name="Path 4219" d="M346.937,33.526a1.163,1.163,0,0,0-.876-.8l-4.794-1-1-4.794a1.16,1.16,0,0,0-1.957-.583l-5.61,5.61a1.16,1.16,0,0,0-.316,1.058l1.029,4.924L331.1,40.241l-1.77,1.771,1.64,1.64,4.078-4.078,4.924,1.029a1.133,1.133,0,0,0,.238.025,1.16,1.16,0,0,0,.82-.34l5.61-5.61A1.164,1.164,0,0,0,346.937,33.526Zm-12.155-.378,3.649-3.649.591,2.825-3.649,3.649Zm5.056,5.056-2.823-.591,3.648-3.649,2.825.591Z" transform="translate(-218.41)" fill="#fa9952"></path></g></svg>