<svg xmlns="http://www.w3.org/2000/svg" width="60" height="60" viewBox="0 0 60 60"><g id="Group_7208" data-name="Group 7208" transform="translate(-32.5 -32.5)"><path id="Path_4203" data-name="Path 4203" d="M425.77,406h6.391l-3.2,5.579Z" transform="translate(-340.275 -323.083)" fill="#227aff"></path><path id="Path_4204" data-name="Path 4204" d="M428.67,57.783v3.452h-7.62V57.783A1.155,1.155,0,0,1,422.2,56.63h5.315A1.154,1.154,0,0,1,428.67,57.783Z" transform="translate(-336.17 -20.984)" fill="#227aff"></path><rect id="Rectangle_1615" data-name="Rectangle 1615" width="7.62" height="2.301" transform="translate(84.88 42.236)" fill="#fa9952"></rect><path id="Path_4205" data-name="Path 4205" d="M89.45,46.339H92.5v34.55H89.45V64.508a.872.872,0,0,0-1.745,0V80.889H84.654V46.339h3.051V60.716a.872.872,0,1,0,1.745,0ZM71.3,32.5H36.151A3.655,3.655,0,0,0,32.5,36.151v52.7A3.655,3.655,0,0,0,36.151,92.5H71.3a3.656,3.656,0,0,0,3.652-3.651v-52.7A3.656,3.656,0,0,0,71.3,32.5ZM45.6,87.295a.872.872,0,0,1-.872.872h-6.6a.872.872,0,0,1-.872-.872v-6.6a.872.872,0,0,1,.872-.872h6.6a.872.872,0,0,1,.872.872Zm0-11.741a.872.872,0,0,1-.872.872h-6.6a.872.872,0,0,1-.872-.872V68.948a.872.872,0,0,1,.872-.872h6.6a.872.872,0,0,1,.872.872Zm0-11.741a.872.872,0,0,1-.872.872h-6.6a.872.872,0,0,1-.872-.872V57.207a.872.872,0,0,1,.872-.872h6.6a.872.872,0,0,1,.872.872ZM70.206,87.295a.872.872,0,0,1-.872.872H50.423a.872.872,0,0,1-.872-.872v-6.6a.872.872,0,0,1,.872-.872h18.91a.872.872,0,0,1,.872.872ZM50.423,68.076h6.605a.872.872,0,0,1,.872.872v6.605a.872.872,0,0,1-.872.872H50.423a.872.872,0,0,1-.872-.872V68.948A.872.872,0,0,1,50.423,68.076Zm-.872-4.263V57.207a.872.872,0,0,1,.872-.872h6.605a.872.872,0,0,1,.872.872v6.605a.872.872,0,0,1-.872.872H50.423A.872.872,0,0,1,49.551,63.813ZM70.206,75.554a.872.872,0,0,1-.872.872H62.728a.872.872,0,0,1-.872-.872V68.948a.872.872,0,0,1,.872-.872h6.605a.872.872,0,0,1,.872.872Zm0-11.741a.872.872,0,0,1-.872.872H62.728a.872.872,0,0,1-.872-.872V57.207a.872.872,0,0,1,.872-.872h6.605a.872.872,0,0,1,.872.872Zm0-12.537a.872.872,0,0,1-.872.872H38.12a.872.872,0,0,1-.872-.872V37.705a.872.872,0,0,1,.872-.872H69.334a.872.872,0,0,1,.872.872Z" transform="translate(0 0)" fill="#fa9952"></path><rect id="Rectangle_1616" data-name="Rectangle 1616" width="4.721" height="4.721" transform="translate(51.344 69.915)" fill="#227aff"></rect><rect id="Rectangle_1617" data-name="Rectangle 1617" width="4.72" height="4.721" transform="translate(38.806 69.915)" fill="#227aff"></rect><rect id="Rectangle_1618" data-name="Rectangle 1618" width="4.72" height="4.72" transform="translate(38.806 81.877)" fill="#227aff"></rect><rect id="Rectangle_1619" data-name="Rectangle 1619" width="16.672" height="4.72" transform="translate(51.512 81.877)" fill="#227aff"></rect><rect id="Rectangle_1620" data-name="Rectangle 1620" width="4.721" height="4.721" transform="translate(63.679 69.915)" fill="#227aff"></rect><rect id="Rectangle_1621" data-name="Rectangle 1621" width="4.721" height="4.721" transform="translate(63.679 58.145)" fill="#227aff"></rect><rect id="Rectangle_1622" data-name="Rectangle 1622" width="4.721" height="4.721" transform="translate(51.344 58.145)" fill="#227aff"></rect><rect id="Rectangle_1623" data-name="Rectangle 1623" width="4.72" height="4.721" transform="translate(38.806 58.145)" fill="#227aff"></rect><rect id="Rectangle_1624" data-name="Rectangle 1624" width="28.622" height="11.486" transform="translate(38.806 38.403)" fill="#227aff"></rect></g></svg>