<svg xmlns="http://www.w3.org/2000/svg" width="60" height="66.357" viewBox="0 0 60 66.357"><g id="Group_7210" data-name="Group 7210" transform="translate(-52.555 -31)"><path id="Path_4208" data-name="Path 4208" d="M378.646,55.821a3.645,3.645,0,0,1-1.841,2.367c-1.27.888-2.852,1.993-2.6,5.678.147,2.137-1.889,3.909-2.993,4.706l-.756-.756-2.5-2.5-2.5-2.5-.016-.015-.494-.494,1.808-1.806.013-.013.013-.013,3.724-3.724.013-.013a.144.144,0,0,0,.015-.016l5.493-5.493C377.127,52.1,379.1,53.955,378.646,55.821Z" transform="translate(-266.157 -17.281)" fill="#fa9952"></path><path id="Path_4209" data-name="Path 4209" d="M354.518,31.32a1.092,1.092,0,0,0-1.544,1.545l2.065,2.065,1.545-1.544Zm-9.047,7.5a1.093,1.093,0,0,0,0,1.545l2.067,2.067,1.545-1.545-2.067-2.067A1.093,1.093,0,0,0,345.472,38.821Zm3.751-3.751a1.1,1.1,0,0,0,0,1.545l2.067,2.067,1.545-1.545-2.067-2.067A1.093,1.093,0,0,0,349.222,35.07Z" transform="translate(-249.243)" fill="#227aff"></path><path id="Path_4211" data-name="Path 4211" d="M0,0,47.181.505,47.2,1.873.015,1.368Z" transform="matrix(0.707, -0.707, 0.707, 0.707, 64.788, 81.289)" fill="#227aff"></path><rect id="Rectangle_1626" data-name="Rectangle 1626" width="46.676" height="1.351" transform="matrix(0.707, -0.707, 0.707, 0.707, 67.716, 83.854)" fill="#227aff"></rect><path id="Path_4210" data-name="Path 4210" d="M101.877,164.407c-1.219-1.85-3.318-1.847-5.539-1.843h-.332a15.8,15.8,0,0,1-8.315-1.752l-17.9,17.9,1.132,1.132a1.092,1.092,0,1,1-1.544,1.545l-8.812-8.811a1.093,1.093,0,0,1,1.545-1.545l1.133,1.133,17.9-17.9c-1.62-2.922-1.758-5.565-1.752-8.442v-.2c0-2.221.007-4.32-1.844-5.539a1.743,1.743,0,0,0-1.544-.322,2.891,2.891,0,0,0-1.557,1.81,30.854,30.854,0,0,0-1.256,7.862c-.028.363-.054.72-.082,1.071,0,.007,0,.015,0,.022-.029.3-.849,7.326-10.959,10-5.161,1.365-10.142,6.123-9.546,11.724a24.078,24.078,0,0,0,1.171,4.957c1.094,3.309,7.66,9.875,10.979,10.976a23.755,23.755,0,0,0,4.954,1.171c5.6.6,10.359-4.384,11.724-9.545,2.676-10.111,9.7-10.93,10-10.96h.023c.35-.029.706-.055,1.069-.082a30.876,30.876,0,0,0,7.864-1.257,2.891,2.891,0,0,0,1.809-1.557A1.744,1.744,0,0,0,101.877,164.407Z" transform="translate(0 -92.045)" fill="#fa9952"></path></g></svg>