<svg xmlns="http://www.w3.org/2000/svg" width="1938.951" height="32.688" viewBox="0 0 1938.951 32.688"><path d="M1910.527,15.835,1883.1,30.992l-27.755-15.34-27.755,15.34-27.756-15.34-27.755,15.34-27.755-15.34-27.755,15.34-27.584-15.246L1661.4,30.992l-27.755-15.341-27.755,15.341-27.755-15.341-27.755,15.341-27.755-15.341-27.755,15.341-27.425-15.158-27.425,15.158-27.755-15.34-27.756,15.34-27.755-15.34L1329,30.992l-27.756-15.341-27.755,15.341-27.755-15.34-27.755,15.34-27.755-15.341-27.756,15.341-27.755-15.34-27.755,15.34-27.755-15.341-27.755,15.341-27.425-15.158L996.6,30.992,968.848,15.652,941.093,30.992,913.338,15.652,885.583,30.992,857.828,15.652,830.073,30.992,802.947,16,775.821,30.992,748.066,15.652,720.311,30.992,692.555,15.652,664.8,30.992,637.045,15.652,609.29,30.992,581.865,15.834,554.44,30.992,526.685,15.652,498.93,30.992,471.175,15.652,443.42,30.992,415.665,15.652,387.91,30.992,360.155,15.652,332.4,30.992,304.645,15.652,276.889,30.992l-27.755-15.34-27.756,15.34L193.624,15.652,165.869,30.992,138.445,15.835,111.02,30.992,83.265,15.652,55.51,30.992,27.755,15.652,0,30.992V0L27.755,15.341,55.51,0,83.265,15.341,111.02,0l27.424,15.158L165.869,0l27.755,15.341L221.379,0l27.756,15.34L276.889,0l27.755,15.341L332.4,0l27.755,15.341L387.91,0l27.755,15.341L443.42,0l27.755,15.341L498.93,0l27.755,15.341L554.44,0l27.425,15.158L609.29,0l27.755,15.341L664.8,0l27.755,15.341L720.311,0l27.755,15.341L775.821,0l27.126,14.993L830.073,0l27.755,15.341L885.583,0l27.755,15.341L941.093,0l27.755,15.341L996.6,0l27.424,15.158L1051.453,0l27.755,15.341L1106.963,0l27.755,15.34L1162.472,0l27.756,15.341L1217.984,0l27.755,15.34L1273.493,0l27.755,15.341L1329,0l27.755,15.34L1384.513,0l27.756,15.34L1440.023,0l27.425,15.158L1494.873,0l27.755,15.341L1550.383,0l27.755,15.341L1605.893,0l27.755,15.341L1661.4,0l27.584,15.246L1716.572,0l27.755,15.34L1772.081,0l27.755,15.34L1827.592,0l27.755,15.34L1883.1,0l27.425,15.158L1937.951,0V30.992Z" transform="translate(0.5 0.848)" fill="#fff" stroke="rgba(0,0,0,0)" stroke-miterlimit="10" stroke-width="1"></path></svg>